<?xml version="1.0" encoding="utf-8"?>
<!-- Generator: Adobe Illustrator 24.0.2, SVG Export Plug-In . SVG Version: 6.00 Build 0)  -->
<svg version="1.1" id="Layer_1" xmlns="http://www.w3.org/2000/svg" xmlns:xlink="http://www.w3.org/1999/xlink" x="0px" y="0px"
	 viewBox="0 0 400 400" style="enable-background:new 0 0 400 400;" xml:space="preserve">
<style type="text/css">
	.st0{fill:#FFFFFF;}
</style>
<g>
	<path class="st0" d="M115.3,180.2c0,0,1.1-5.8,3.8-9.6c2.6-3.9,4.1-6,4.7-5.1c0.6,0.9,0.3,2.9,0.5,3.7c0.2,0.8,1.5,0.7,2.7-0.4
		c1.2-1.1,2.6-2.8,4.2-3c1.6-0.2,2.9,0.6,3.3,0.4c0.4-0.2,1.1-0.4,1.4,0c0.3,0.4-1.3,0.8-1.8,2.1c-0.5,1.3-0.5,2.4-0.5,2.4
		s1.7-2.6,3.2-1c1.5,1.7,2,2.8,4.2,5c2.2,2.2,13.7,15.4,15.6,18.8c1.9,3.3-1.3,1.1-2.4,0.1c-1.1-1-11.3-0.8-17.1-7.8
		c-2.1-2.6-8,1.4-10.3,0.5c-2.3-0.8-4.5-1.5-5.1-1.6c-0.6-0.1-4.6,6.3-5.4,9.4c-0.8,3.1-4.4-0.1-5-4.7c-0.6-4.6-0.2-5.5,0.4-5.5
		c0.6-0.1,3.7-1,5.3-2.2c1.6-1.2,0.7-1.9,0.3-1.6C116.8,180.2,115.7,181.1,115.3,180.2z"/>
	<path class="st0" d="M276.4,284.8c0,0,0.7-5,2.7-8.5c2-3.5,3.1-5.5,3.7-4.9c0.6,0.7,0.4,2.4,0.6,3.1c0.2,0.6,1.3,0.4,2.3-0.6
		c0.9-1.1,2.1-2.7,3.4-3c1.3-0.3,2.4,0.2,2.8,0c0.3-0.2,0.9-0.5,1.2-0.2c0.3,0.3-1.1,0.8-1.4,2c-0.3,1.1-0.3,2-0.3,2
		s1.3-2.4,2.6-1.2c1.4,1.2,1.8,2.2,3.8,3.7c2,1.6,12.3,11.5,14.1,14c1.8,2.6-1,1-2,0.3c-1-0.7-9.5,0.6-14.8-4.7
		c-1.9-1.9-6.6,2.1-8.6,1.6c-2-0.5-3.9-0.7-4.4-0.8c-0.5-0.1-3.6,5.8-4,8.5c-0.5,2.7-3.7,0.4-4.4-3.4c-0.7-3.8-0.4-4.6,0.1-4.7
		c0.5-0.1,3-1.3,4.3-2.5c1.3-1.2,0.5-1.7,0.2-1.4C277.7,284.6,276.8,285.5,276.4,284.8z"/>
	<path class="st0" d="M50.9,241c0,0,0.4-3.3,1.8-5.7c1.3-2.4,2.1-3.7,2.5-3.3c0.4,0.5,0.3,1.6,0.4,2.1c0.1,0.4,0.9,0.3,1.5-0.4
		c0.6-0.7,1.4-1.8,2.3-2c0.9-0.2,1.6,0.1,1.9,0c0.2-0.2,0.6-0.3,0.8-0.1c0.2,0.2-0.7,0.6-1,1.3c-0.2,0.8-0.2,1.4-0.2,1.4
		s0.9-1.6,1.8-0.8c0.9,0.8,1.2,1.5,2.6,2.5c1.3,1.1,8.3,7.7,9.5,9.5c1.2,1.7-0.7,0.7-1.4,0.2c-0.7-0.5-6.4,0.4-10-3.2
		c-1.3-1.3-4.5,1.4-5.8,1.1c-1.3-0.3-2.6-0.5-3-0.5c-0.4,0-2.4,3.9-2.7,5.7c-0.3,1.8-2.5,0.3-3-2.3c-0.5-2.6-0.3-3.1,0.1-3.2
		c0.3-0.1,2.1-0.9,2.9-1.7c0.8-0.8,0.4-1.1,0.1-0.9C51.8,240.8,51.1,241.4,50.9,241z"/>
	<path class="st0" d="M71,292.6c0,0,6.1-5.6,8.9-6c2.8-0.4,4.8-0.1,4.5,1.5c-0.3,1.7-0.8,6.4,0.1,8.1c0.9,1.7,0.8,2.6,2.2,0.7
		c1.4-1.9,1.8-5,2.8-3.6c1,1.4,0.5,3.2,1.6,2.7c1.1-0.5,1.1-0.5,1.6-0.5c0.5,0.1,0.9-0.3,1.5-0.5c0.5-0.1-0.6,0.8-0.8,1.3
		c-0.2,0.5-0.6,3.2-1.1,4.4c-0.6,1.2-0.9,2.6-0.9,2.6s1,3.6,2.5,8.7c1.5,5.1,2.2,7.7,0,5.1c-2.2-2.7-1.3-2.9-3.2-4.3
		c-1.9-1.5-3.3-3.4-3.7-4.6c0,0-3.4,2.6-4.9,2.2c-1.5-0.4-1.9,2.2-3.2,3.6c-1.3,1.4-2.8,1.9-4.7-1c-1.9-2.9-0.7-5.5-0.1-5.9
		c0.7-0.4,2.9-0.3,4.1-1c1.1-0.7,2.3-2.6,0.9-2.4c-1.4,0.3-3.2-4.7-2.6-6.3c0.6-1.7,1.8-4.9,0.3-5C75.1,292.3,71.9,294,71,292.6z"/>
	<path class="st0" d="M267.3,119.4c0,0,2.8-2.1,4.1-2.2c1.2,0,2.1,0.2,1.9,0.9c-0.2,0.7-0.5,2.8-0.2,3.6c0.4,0.8,0.3,1.2,0.9,0.4
		c0.7-0.8,0.9-2.1,1.3-1.4c0.4,0.7,0.1,1.4,0.7,1.3c0.5-0.1,0.5-0.2,0.7-0.1c0.2,0.1,0.4-0.1,0.7-0.1c0.2,0-0.3,0.3-0.4,0.5
		c-0.1,0.2-0.3,1.4-0.6,1.9c-0.3,0.5-0.5,1.1-0.5,1.1s0.3,1.6,0.9,4c0.5,2.3,0.8,3.5-0.1,2.2c-0.9-1.3-0.5-1.3-1.3-2.1
		c-0.8-0.8-1.4-1.7-1.5-2.2c0,0-1.6,1-2.2,0.7c-0.6-0.3-0.9,0.9-1.5,1.4c-0.6,0.5-1.3,0.7-2-0.7c-0.7-1.4-0.2-2.4,0.1-2.6
		c0.3-0.1,1.3,0,1.8-0.2c0.5-0.2,1.1-1,0.5-1c-0.6,0-1.3-2.2-1-2.9c0.3-0.7,0.9-2,0.2-2.2C269.1,119.5,267.6,120,267.3,119.4z"/>
	<path class="st0" d="M158.3,100.3c0-0.3-0.3-10.9-1.9-14.3c-1.6-3.4-7.6-13.1-10.7-18.2c-3-5-6.7-9.9-7.3-9.3
		c-0.7,0.6,3.1,6.5,3.3,10.3c0.2,3.8,1,7.9,1.7,10.9c0.7,3,2.6,5.2,2.4,7.7c-0.2,2.5,0.2,7.3,1.8,14.6c1.7,7.3,2.7,12.1,2.8,15.7
		c0.1,3.6,0.2,5.1-2.4,4.3c-2.6-0.8-6.4-3.1-7.3-2.2c-0.9,0.9-1.4,9.2,0.8,11.6c2.2,2.4,7.2,3.1,9.4,2.8c2.2-0.3,1.1-6.3,2.2-6.5
		c1.2-0.1,5.4,0.5,10.7-3.2c5.3-3.8,5.9-6.6,6.5-7.1c0.6-0.6,1.1-1.3,0.7-1.4c-0.4,0-0.4,0.4-1.8-0.7c-1.4-1.1-3.2-1.2-3.9-1.1
		c-0.7,0.1-1.5-1.7,0.2-4.6c1.7-2.9,4.6-6.8,3.9-11.1c-0.7-4.3-1.7-12.3-2.5-15.9c-0.8-3.6-2.6-6.3-3.2-5.5c-0.6,0.8,1,3.7,0.3,8
		c-0.7,4.3-4.2,10.6-4.9,13.6C158.8,101.5,158.3,102.5,158.3,100.3z"/>
	<path class="st0" d="M129.3,271.3c0.5-0.4,2-1.5,3-1.5s1.5,0.4,2,0.8c0.5,0.3,0.8,0.5,1.2,0.5c0.4,0,0,0.3-0.5,0.7
		c-0.5,0.3-0.9,1.8-1.7,2.8c-0.8,1-2.9,5.7-4.9,7.1c-2,1.5-4.5,1.8-5.8,2.9c-1.3,1.1-2.5,4.2-3.1,4.5c-0.6,0.3-2.3-3-2.9-4.2
		c-0.6-1.2,1.1-2.4,2.3-2.5c1.2-0.2,2.5-1.7,1.8-2.2c-0.7-0.4-4.9-9.5-5.6-12.3c-0.7-2.8-1.6-13.4-2.9-16.6
		c-1.3-3.3-0.8-10.5-0.3-10.7c0.5-0.3,3.4,6.1,4.5,8.3c1.2,2.2,1.7,3.4,2,3.5c0.2,0.1,0.6-1.6,0.6-3.2c0-1.6-0.3-4,2.5,1.2
		c2.8,5.2,6,7.9,5.8,10.7c-0.2,2.8-0.1,5.2,0,7.2c0.1,2,0.5,3.9,0.5,3.9S128.8,271.7,129.3,271.3z"/>
	<path class="st0" d="M391.9,273.1c0.3-0.3,1.5-1.1,2.3-1.1c0.8,0,1.1,0.3,1.5,0.6c0.3,0.3,0.6,0.4,0.9,0.4c0.3,0,0,0.3-0.4,0.5
		c-0.3,0.3-0.7,1.4-1.3,2.1c-0.6,0.7-2.2,4.3-3.7,5.4c-1.5,1.1-3.4,1.4-4.4,2.2c-1,0.8-1.9,3.1-2.4,3.4c-0.5,0.3-1.7-2.3-2.2-3.2
		c-0.4-0.9,0.8-1.8,1.7-1.9c0.9-0.1,1.9-1.3,1.4-1.7c-0.5-0.3-3.7-7.2-4.2-9.3c-0.6-2.1-1.2-10.1-2.2-12.6c-1-2.5-0.6-7.9-0.2-8.1
		c0.4-0.2,2.5,4.6,3.4,6.2c0.9,1.7,1.3,2.6,1.5,2.6c0.2,0,0.4-1.2,0.4-2.4c0-1.2-0.2-3,1.9,0.9c2.1,3.9,4.5,6,4.4,8.1
		c-0.1,2.1-0.1,3.9,0,5.4c0.1,1.5,0.3,3,0.3,3S391.6,273.4,391.9,273.1z"/>
	<path class="st0" d="M379.1,54.6c0.5-0.2,2.2-0.7,3.2-0.3c1,0.4,1.4,1,1.8,1.5c0.4,0.5,0.7,0.8,1.1,0.9c0.4,0.1-0.1,0.3-0.6,0.5
		c-0.5,0.2-1.2,1.4-2.1,2.1c-0.9,0.6-3.7,4.5-5.9,5.2c-2.2,0.7-4.7,0.1-6.1,0.7c-1.5,0.6-3.1,3.1-3.8,3.2c-0.7,0.1-1.7-3.8-2.1-5.1
		c-0.4-1.4,1.5-1.9,2.7-1.6c1.2,0.3,2.7-0.8,2.1-1.5c-0.6-0.7-3.2-11-3.4-13.9c-0.2-3,0.7-13.5,0-17.2c-0.7-3.6,1-10.4,1.5-10.5
		c0.5-0.1,2.2,7.1,3,9.6c0.8,2.5,1.1,3.9,1.3,4.1c0.2,0.1,0.8-1.3,1.1-2.9c0.3-1.6,0.4-4,2.2,2.1c1.8,6.1,4.5,9.8,3.8,12.4
		c-0.6,2.6-1,5-1.2,7c-0.2,1.9-0.2,4-0.2,4S378.6,54.8,379.1,54.6z"/>
	<path class="st0" d="M137.5,37.9c-0.2-0.1-0.4-0.4-0.7-0.7c-0.2-0.4-0.5-0.8-1.1-1.2c-0.6-0.4-1.8-0.2-2.1-0.1
		c-0.4,0.1-1.1-0.1-1.1-0.1s0.1-1.3,0.3-2.6c0.2-1.3,0.6-2.8,1.1-4.5c0.6-1.7-1-4.4-1.9-8.6c-0.9-4.2-1.1-2.6-1.4-1.6
		c-0.3,1-0.7,1.9-0.9,1.8c-0.1-0.1-0.3-1.1-0.7-2.8c-0.4-1.8-1.1-6.7-1.5-6.7c-0.4,0-1.8,4.3-1.5,6.8c0.3,2.5-0.9,9.3-0.9,11.3
		c0,2,1.2,9.1,1.6,9.6c0.3,0.5-0.7,1.1-1.5,0.8c-0.8-0.3-2-0.1-1.8,0.8c0.2,0.9,0.7,3.6,1.1,3.6c0.4,0,1.7-1.5,2.7-1.8
		c1-0.2,2.6,0.4,4.1,0.2c1.5-0.2,3.5-2.5,4.2-2.8c0.7-0.3,1.2-1.1,1.5-1.1C137.4,38.1,137.8,38,137.5,37.9z"/>
	<path class="st0" d="M304.5,52.1c0,0,4.8-2.7,6.9-1.8c2.2,0.9,1.9,2.8,2.8,2.9c0.8,0.2,2,0.9,1.4,1.2c-0.6,0.3-1.5,0.4-1.9,1.1
		c-0.4,0.7-2.6,4.7-4.3,5.8c-1.7,1.1-2.7,1.3-2.1,2.3c0.6,1,3.4,5.9,6.3,6.5c2.9,0.5,6.1,1.2,7.2,4.5c1.1,3.3,2.1,12.1,3.3,17.8
		c1.2,5.7,2.3,22.5,1.9,28.2c-0.4,5.7-0.2,7.7-1.5,8.5c-1.3,0.8-5.7-7.1-6.5-12.5c-0.8-5.4-2-14.7-4.6-18.9
		c-2.6-4.1-13.9-15.5-16.3-17.8c-2.4-2.4-3.3-5.5-3.3-5.5s-3.5,1.8-5.5,2.7c-1.2,0.5-5,5.5-5.6,7.2c-0.6,1.7-1.1,2.7-2.1,1.6
		c-1-1.1-2.2-2.7-3.1-4.4c-0.9-1.7-2.4-5.3-1.4-6c1-0.7,2.7-1.2,4.6-2.3c1.8-1,3.4-3,4.9-5c1.4-1.9,2.1-4.5,2.1-4.8
		c0-0.3-3.3-9.5-3.6-16.7c-0.3-7.2-2.4-16-3.1-17.9c-0.8-1.9-9.2-11.7-11.4-15.4c-2.3-3.8-5.2-8.1-1-7.8c4.2,0.3,15.6,6.3,20,9.8
		c4.4,3.5,8.5,5.9,8.6,10.5c0.1,4.6-1.1,10.9,0,15.2C298.1,45.5,301.8,52.5,304.5,52.1z"/>
	<path class="st0" d="M122.1,357.4c0,0,2.6-3,4.1-3.1c1.5,0,1.6,1.2,2.1,1.1c0.5-0.1,1.4,0,1,0.4c-0.3,0.4-0.9,0.7-1,1.2
		c-0.2,0.6-1,3.7-1.9,4.9c-0.9,1.2-1.5,1.6-1,2c0.5,0.4,2.9,2.7,4.8,2.3c1.9-0.5,4-1,5.1,0.8c1.1,1.8,2.9,7,4.4,10.2
		c1.5,3.2,4.4,13.4,4.9,17s0.9,4.9,0.2,5.7c-0.7,0.9-4.5-2.9-5.7-6c-1.2-3.1-3.2-8.6-5.4-10.5c-2.2-1.8-10.8-5.7-12.6-6.5
		s-2.8-2.5-2.8-2.5s-1.9,2.1-3.1,3.2c-0.7,0.7-2.4,4.9-2.6,6.1c-0.2,1.3-0.3,2-1.1,1.6c-0.8-0.4-1.7-1.1-2.5-1.9
		c-0.8-0.8-2.2-2.6-1.6-3.4c0.5-0.7,1.5-1.5,2.5-2.7c1-1.2,1.7-2.9,2.4-4.5c0.6-1.6,0.7-3.4,0.7-3.6c0-0.2-3.3-5-4.4-9.4
		c-1.1-4.4-3.6-9.3-4.3-10.3c-0.7-1-7.3-4.7-9.2-6.4c-1.9-1.7-4.3-3.6-1.6-4.6c2.7-1,10.6-0.5,13.8,0.5c3.2,0.9,6.1,1.3,6.7,4.2
		c0.7,2.9,0.7,7.1,2,9.5C117.2,355.1,120.4,358.4,122.1,357.4z"/>
	<path class="st0" d="M201.8,318.4c0,0-0.1-4.2-4.8-8.6c-4.7-4.4-12.7-15.7-13.4-18.5c-0.7-2.8-3.1-7.5-3.3-8.7
		c-0.3-1.2-1.5,2-0.2,6.1c1.3,4.1,2.9,8.5,3.3,11.1c0.4,2.6,2.7,11.7,8.1,15.7c5.4,4,7.9,6.2,7.7,7.2c-0.3,1-1.5,2.3-2.7,1.8
		c-1.2-0.5-4.5-2.6-4.8-1.6c-0.4,1,1.1,10.5,5,12.8c3.9,2.3,8.4,0.6,9-0.1c0.6-0.7-2.8-1.9-2.2-3.7c0.6-1.8,2.3-0.7,3.4-1.8
		c1.1-1.2,3.9-0.1,4.6,0c0.7,0.1-0.3-1-0.3-1s5.9,1.4,8.3,2.1c2.4,0.7,8.4-0.1,10,0.9c1.7,1,16,1,16.7-0.6c0.4-1-2.2-0.5-4.5-0.5
		c-2.3,0-9.6-1.1-12.3-3c-2.7-1.9-6.6-4.2-8.4-4.8c-1.8-0.6-7.2,0.5-9.3,0.6c-2.1,0-3.3-0.2-3.3-0.2s-1.2-2.5-2.3-3.5
		C205,319,201.8,318.4,201.8,318.4z"/>
	<path class="st0" d="M184.7,73c0,0-0.1-2.3-2.7-4.8c-2.6-2.4-7-8.7-7.4-10.2c-0.4-1.6-1.7-4.2-1.9-4.8c-0.1-0.7-0.9,1.1-0.1,3.4
		c0.7,2.3,1.6,4.7,1.8,6.2c0.2,1.5,1.5,6.5,4.5,8.7c3,2.2,4.4,3.4,4.3,4c-0.1,0.6-0.8,1.3-1.5,1c-0.7-0.3-2.5-1.5-2.7-0.9
		c-0.2,0.6,0.6,5.8,2.8,7.1c2.2,1.3,4.7,0.3,5,0c0.3-0.4-1.5-1.1-1.2-2.1c0.3-1,1.3-0.4,1.9-1c0.6-0.6,2.1-0.1,2.5,0
		c0.4,0.1-0.2-0.5-0.2-0.5s3.2,0.8,4.6,1.1c1.3,0.4,4.6,0,5.6,0.5c0.9,0.5,8.9,0.5,9.3-0.3c0.2-0.6-1.2-0.3-2.5-0.3
		c-1.3,0-5.3-0.6-6.8-1.7c-1.5-1.1-3.7-2.3-4.7-2.7c-1-0.3-4,0.3-5.2,0.3c-1.2,0-1.8-0.1-1.8-0.1s-0.7-1.4-1.3-1.9
		C186.5,73.4,184.7,73,184.7,73z"/>
	<path class="st0" d="M132.3,132.3c-0.7,0.1-2.8,0.2-3.6-0.2c-0.8-0.4-2-0.8-2.5-0.9c-0.5-0.1-2,0.6-2.6,0.7
		c-0.6,0.1-0.9,0.1-0.9,0.1s-0.4-0.6-0.7-0.9c-0.3-0.2-1.3-0.2-1.3-0.2s-0.1-1.2-1.6-2.2c-1.5-1-4-3.7-4.3-4.5s-1.1-1.9-1.2-2.3
		c-0.1-0.3-0.4,0.7,0.1,1.8c0.5,1.1,1,2.3,1.2,3c0.2,0.7,1.1,3.2,2.7,4c1.6,0.8,2.4,1.3,2.4,1.6c0,0.3-0.4,0.7-0.7,0.7
		c-0.4-0.1-1.3-0.5-1.4-0.2c-0.1,0.3,0.6,2.9,1.8,3.3c1.2,0.4,2.4-0.3,2.6-0.5c0.2-0.2-0.8-0.4-0.7-0.9c0.1-0.5,0.6-0.3,0.9-0.7
		c0.3-0.4,1.1-0.3,1.3-0.3c0.2,0-0.1-0.3-0.1-0.3s1.7,0.1,2.4,0.1c0.7,0.1,2.4-0.5,2.9-0.3c0.5,0.2,4.6-0.6,4.7-1.1
		C133.7,131.9,133,132.2,132.3,132.3z"/>
	<path class="st0" d="M396.4,120.4c-1.9-0.5-7.7-2.8-9.7-4.9c-2-2.1-5-4.7-6.4-5.5c-1.4-0.8-5.9-1-7.6-1.4c-1.7-0.4-2.6-0.8-2.6-0.8
		s-0.7-2.2-1.5-3.3c-0.8-1-3.4-2.2-3.4-2.2s0.3-3.4-3.1-7.9c-3.4-4.5-8.8-15.2-9.1-17.6c-0.3-2.4-1.8-6.7-1.9-7.7
		c-0.1-1.1-1.4,1.3-0.7,4.9c0.7,3.6,1.5,7.5,1.7,9.7c0.1,2.2,1.1,10,5.1,14.3c4,4.3,5.9,6.6,5.5,7.3c-0.3,0.8-1.4,1.6-2.4,0.9
		c-1-0.6-3.4-3-3.7-2.3c-0.4,0.7-0.1,8.7,2.9,11.3c3,2.6,6.7,2.2,7.3,1.7c0.6-0.4-2.1-2.1-1.4-3.4c0.7-1.3,2-0.1,3-0.8
		c1-0.7,3.1,0.7,3.7,0.9c0.6,0.2-0.1-0.9-0.1-0.9s4.6,2.3,6.5,3.3c1.9,1,6.8,1.6,8,2.7c1.3,1.1,12.9,4,13.6,2.8
		C400.4,121,398.2,120.9,396.4,120.4z"/>
	<path class="st0" d="M284,171.7c0,0-5.4-6.9-6.4-13.1c-1-6.2-2.9-13-5.9-15.7c-2.9-2.8-10.5-11.1-15.5-13.9c-4.9-2.8-5.3-0.7-3,2
		c4.8,5.7,5.5,10.3,6.5,15.4c0.9,5,1.8,18.5,6.1,24.7c4.3,6.2,7.5,9.8,7.6,12.3c0.1,2.5-1.3,3.5-1.3,3.5s-4.9,3.3-6.4,3.4
		c-1.5,0.1-1.7,2.1-0.5,7.1c1.2,4.9,3.2,7.3,6.7,6.5c3.5-0.8,3.2,0.3,3.8-3.4c0.6-3.7-0.3-5.9,1.3-7.1c1.6-1.1,2.8-2.4,4.1-1.6
		c1.4,0.8,11.6,14.4,16.5,15.5c4.9,1.1,4.5,0,7.3,2.5c2.9,2.5,8.4,13.2,10.2,12.2c1.8-1-2.1-9.2-4.8-15.7c-2.7-6.5-6.6-15.6-8.7-17
		c-2.2-1.4-10-3.9-11-7.4c0,0,0.9-1.8,2.2-2.4c1.3-0.6,2.5-0.3,3.7-1.3c1.2-1,2.7-0.6,2.7-0.6s-0.9-1.3-1.6-1.4
		c-0.8-0.1-2-4.9-5.4-4.5c-3.5,0.4-4.6,0.9-5.6,0.9C285.7,172.6,284,171.7,284,171.7z"/>
	<path class="st0" d="M16.7,143.4c0,0-3.3-4.3-4-8.2c-0.6-3.9-1.8-8.1-3.7-9.8c-1.8-1.7-6.6-6.9-9.6-8.6c-3.1-1.7-3.3-0.4-1.9,1.3
		c3,3.5,3.4,6.4,4,9.6c0.6,3.1,1.1,11.5,3.8,15.4c2.7,3.8,4.7,6.1,4.7,7.7c0.1,1.6-0.8,2.2-0.8,2.2s-3.1,2-4,2.1
		c-0.9,0.1-1.1,1.3-0.3,4.4c0.8,3.1,2,4.6,4.2,4.1c2.2-0.5,2,0.2,2.4-2.1c0.4-2.3-0.2-3.7,0.8-4.4c1-0.7,1.7-1.5,2.6-1
		c0.9,0.5,7.2,9,10.3,9.7c3.1,0.7,2.8,0,4.6,1.6c1.8,1.6,5.2,8.3,6.4,7.6c1.1-0.6-1.3-5.7-3-9.8c-1.7-4.1-4.1-9.7-5.4-10.6
		c-1.3-0.9-6.3-2.4-6.8-4.6c0,0,0.5-1.1,1.3-1.5c0.8-0.4,1.6-0.2,2.3-0.8c0.8-0.6,1.7-0.4,1.7-0.4s-0.5-0.8-1-0.9
		c-0.5-0.1-1.2-3.1-3.4-2.8c-2.2,0.2-2.9,0.5-3.5,0.5C17.7,144,16.7,143.4,16.7,143.4z"/>
	<path class="st0" d="M229.6,117.6c0,0-1.5-3.5-1-9.1c0.5-5.6,1-10.6-0.1-14.1c-1.1-3.5-4.4-12.5-5.6-19.6
		c-1.2-7.1-2.3-13.4-3.1-13.7c-0.8-0.3-4.9,14.3-4.2,24c0.7,9.7,1.7,11.4,2,14.2c0.3,2.8-0.8,5.1-0.6,11.1c0.2,6,1.6,12.4,1.7,13.6
		c0.1,1.2-0.9,2.7-1.9,3.7c-1,1.1-3.6,2.2-4.8,2.8c-1.2,0.5-2.3,0.5-2.2,1.5c0.1,1,0.4,3.7,1.4,5c1,1.3,2.5,1.7,3.4,1.8
		c0.8,0.1,1.7-4,2.7-4.3c1-0.2,5.7-1.8,6.6-1.6c0.9,0.2,3,2.7,6.3,1.7c3.3-1,4.3-0.6,6.3,0.3c1.9,0.9,6.2,4.1,6.6,4
		c0.5-0.1-0.5-3.1-1.4-4.4c-1.4-2-1.8-2.2-2.7-3.7c-0.9-1.5-3.2-4-4.2-3.8c0,0,1.2-3.1,2.5-4.2c1.4-1.1,2.7-3,3.4-3.3
		c0.7-0.2,1.9-0.2,2.1-0.5c0.2-0.4-2.5-1.1-2.5-1.1s-0.6-2.6-4-2.9C233,114.7,230.7,117.2,229.6,117.6z"/>
	<path class="st0" d="M350.5,332.4c0,0-1.3-3.1-0.9-8c0.4-5,0.9-9.4-0.1-12.4c-1-3.1-3.9-11-4.9-17.3c-1-6.3-2-11.8-2.7-12.1
		c-0.7-0.3-4.3,12.6-3.7,21.2c0.6,8.6,1.5,10,1.8,12.5c0.3,2.5-0.7,4.5-0.5,9.8c0.2,5.3,1.4,11,1.5,12c0.1,1-0.8,2.4-1.7,3.3
		c-0.9,0.9-3.2,2-4.2,2.4c-1.1,0.5-2,0.4-1.9,1.3c0.1,0.8,0.3,3.3,1.2,4.4c0.9,1.2,2.2,1.5,3,1.6c0.7,0.1,1.5-3.6,2.4-3.8
		c0.9-0.2,5-1.5,5.8-1.4c0.8,0.2,2.6,2.4,5.6,1.5c2.9-0.9,3.8-0.6,5.6,0.3c1.7,0.8,5.4,3.6,5.9,3.5c0.4-0.1-0.4-2.7-1.3-3.9
		c-1.2-1.7-1.6-1.9-2.4-3.3c-0.8-1.4-2.9-3.5-3.7-3.4c0,0,1-2.7,2.2-3.7c1.2-1,2.4-2.7,3-2.9c0.6-0.2,1.7-0.1,1.9-0.5
		c0.2-0.3-2.2-0.9-2.2-0.9s-0.6-2.3-3.6-2.6C353.4,329.8,351.4,332,350.5,332.4z"/>
	<path class="st0" d="M80.5,129.2c0,0-0.9-1.5-0.9-4.2c0-2.7,0-5.1-0.7-6.6c-0.7-1.5-2.6-5.5-3.5-8.7c-0.9-3.3-1.7-6.1-2-6.2
		c-0.4-0.1-1.7,7.2-0.9,11.7c0.8,4.5,1.3,5.2,1.6,6.5c0.3,1.3-0.1,2.5,0.2,5.3c0.3,2.8,1.3,5.7,1.4,6.3c0.1,0.5-0.3,1.4-0.7,1.9
		c-0.4,0.6-1.6,1.4-2.2,1.7s-1.1,0.5-1,0.9c0.1,0.4,0.3,1.7,0.9,2.2c0.5,0.5,1.3,0.6,1.7,0.5c0.4,0,0.6-2.1,1.1-2.3
		c0.5-0.2,2.6-1.4,3-1.3c0.4,0,1.5,1,3.1,0.2c1.5-0.8,2-0.7,3-0.4c1,0.3,3.1,1.4,3.3,1.3c0.2-0.1-0.4-1.4-0.9-2
		c-0.7-0.8-1-0.9-1.5-1.5c-0.5-0.6-1.7-1.6-2.1-1.4c0,0,0.4-1.6,1-2.2c0.6-0.7,1.1-1.7,1.5-1.9c0.3-0.2,0.9-0.3,1-0.4
		c0.1-0.2-1.2-0.3-1.2-0.3s-0.4-1.2-2-1C82,127.5,81,128.9,80.5,129.2z"/>
	<path class="st0" d="M294.2,351.5c-0.5-0.3-0.6-0.3-0.9-0.6c-0.3-0.3-1.1-0.6-1.3-0.5c0,0,0.1-0.9,0.4-1.4c0.3-0.5,0.5-1.1,0.7-1.3
		c0.2-0.1,0.5-0.3,0.5-0.4c0-0.1-0.7,0-0.7,0s-0.3-0.6-1.2-0.2c-0.9,0.4-1.3,1.3-1.6,1.5c0,0-0.6-0.7-0.8-2.2
		c-0.2-1.5-0.4-2.9-0.9-3.6c-0.5-0.8-1.9-2.7-2.6-4.4c-0.7-1.7-1.4-3.2-1.6-3.2c-0.2,0-0.4,4.3,0.3,6.8c0.8,2.4,1.1,2.7,1.4,3.4
		c0.2,0.7,0.1,1.4,0.5,3c0.4,1.5,1.2,3,1.3,3.3c0.1,0.3-0.1,0.8-0.3,1.2c-0.2,0.4-0.8,1-1.1,1.3c-0.3,0.3-0.6,0.4-0.5,0.7
		c0.1,0.2,0.3,0.9,0.7,1.1c0.3,0.2,0.8,0.1,1,0c0.2-0.1,0.2-1.3,0.5-1.5c0.3-0.2,1.4-1.2,1.6-1.2c0.2-0.1,0.9,0.3,1.7-0.4
		c0.8-0.7,1.1-0.7,1.7-0.7c0.6,0,1.8,0.3,2,0.2C295,352.4,294.5,351.7,294.2,351.5z"/>
	<path class="st0" d="M187.7,212c-1.1-0.7-1.4-0.7-2.2-1.4c-0.8-0.6-2.5-1.4-3.1-1c0,0,0.2-2.2,0.9-3.3c0.6-1.1,1.1-2.7,1.5-3
		c0.4-0.4,1.1-0.7,1.2-1c0.1-0.3-1.7,0.1-1.7,0.1s-0.8-1.3-2.9-0.5c-2.1,0.9-3.1,3.1-3.6,3.7c0,0-1.4-1.6-2-5.1
		c-0.6-3.5-1-6.7-2.2-8.4c-1.2-1.7-4.5-6.1-6.3-10c-1.8-3.9-3.4-7.3-3.9-7.2c-0.5,0.1-0.8,10.2,1.1,15.8c1.9,5.6,2.8,6.3,3.4,7.9
		c0.6,1.6,0.3,3.3,1.3,6.8c1,3.5,2.9,7,3.1,7.6c0.2,0.7-0.1,1.9-0.6,2.9c-0.4,1-1.8,2.5-2.5,3.2c-0.7,0.7-1.3,1-1.1,1.6
		c0.2,0.5,0.8,2.1,1.6,2.6c0.8,0.5,1.8,0.2,2.3,0c0.5-0.2,0.4-3,1-3.4c0.6-0.5,3.2-2.9,3.7-3c0.5-0.2,2.2,0.7,4-1
		c1.8-1.7,2.5-1.8,3.8-1.8c1.3-0.1,4.3,0.5,4.6,0.3C189.5,214,188.4,212.5,187.7,212z"/>
	<path class="st0" d="M251.1,232.9c0,0-1-1.9-2.3-1.4c-1.3,0.5-2.1,1.1-2.9,1c-0.8-0.1-3.9-1-4.9-5.6c-1-4.6,0.4-11.7-2.2-13.2
		c-2.6-1.6-9.9-3.6-18.1-2.4c-8.3,1.2-9,0.9-6.3,3.7c2.6,2.8,6.8,3.6,8.3,3.6c1.4,0,4.5,0.5,5.7,2c1.2,1.5,1.9,4.9,3.8,9.9
		c1.9,4.9,4.2,10.4,4,12c-0.1,1.7-1.6,3.7-3.3,4.6c-1.7,0.8-3.1,1.3-2.8,2.1c0.3,0.8,2.1,2,2.9,2.8c0.8,0.8,1.8,2.2,2.2,1.3
		c0.4-0.9,1.5-3.9,3.4-4.8c1.9-0.8,3-0.5,6.1-3.1c3.1-2.6,5.1-6.8,5.5-7.5c0.4-0.7,1.7,0.5,2.3,1.6c0.6,1.1,1.5,4.1,3.3,6.1
		c1.8,2,2.4,5.4,3.7,6c1.3,0.6,0.8-7.9,0.8-12.1c-0.1-4.2-0.3-6.2-1.3-8.3c-1-2.1-2-2.5-2.9-1.7S252.1,232.8,251.1,232.9z"/>
	<path class="st0" d="M116.6,63.5c0,0-0.2-0.4-0.5-0.3c-0.3,0.1-0.5,0.3-0.7,0.2c-0.2,0-0.9-0.2-1.1-1.3c-0.2-1,0.1-2.6-0.5-3
		c-0.6-0.4-2.2-0.8-4-0.5c-1.8,0.3-2,0.2-1.4,0.8c0.6,0.6,1.5,0.8,1.8,0.8s1,0.1,1.3,0.4c0.3,0.3,0.4,1.1,0.8,2.2
		c0.4,1.1,0.9,2.3,0.9,2.7c0,0.4-0.4,0.8-0.7,1c-0.4,0.2-0.7,0.3-0.6,0.5c0.1,0.2,0.5,0.4,0.6,0.6c0.2,0.2,0.4,0.5,0.5,0.3
		c0.1-0.2,0.3-0.9,0.8-1.1c0.4-0.2,0.7-0.1,1.4-0.7c0.7-0.6,1.1-1.5,1.2-1.7c0.1-0.1,0.4,0.1,0.5,0.4c0.1,0.2,0.3,0.9,0.7,1.4
		c0.4,0.4,0.5,1.2,0.8,1.3c0.3,0.1,0.2-1.8,0.2-2.7c0-0.9-0.1-1.4-0.3-1.9c-0.2-0.5-0.5-0.6-0.6-0.4
		C117.6,62.9,116.8,63.5,116.6,63.5z"/>
	<path class="st0" d="M387.4,165.3c0,0-0.3-0.6-0.7-0.5c-0.4,0.2-0.7,0.4-0.9,0.3c-0.2,0-1.3-0.3-1.6-1.8c-0.3-1.5,0.1-3.8-0.7-4.3
		c-0.8-0.5-3.2-1.2-5.9-0.8c-2.7,0.4-2.9,0.3-2,1.2c0.8,0.9,2.2,1.2,2.7,1.2s1.4,0.2,1.8,0.6c0.4,0.5,0.6,1.6,1.2,3.2
		c0.6,1.6,1.3,3.4,1.3,3.9c0,0.5-0.5,1.2-1.1,1.5c-0.5,0.3-1,0.4-0.9,0.7c0.1,0.3,0.7,0.6,0.9,0.9c0.2,0.3,0.6,0.7,0.7,0.4
		c0.1-0.3,0.5-1.3,1.1-1.5c0.6-0.3,1-0.2,2-1c1-0.8,1.7-2.2,1.8-2.4c0.1-0.2,0.5,0.2,0.7,0.5c0.2,0.4,0.5,1.3,1.1,2
		c0.6,0.6,0.8,1.8,1.2,1.9c0.4,0.2,0.3-2.6,0.2-3.9c0-1.4-0.1-2-0.4-2.7c-0.3-0.7-0.7-0.8-0.9-0.5
		C388.7,164.4,387.7,165.2,387.4,165.3z"/>
</g>
</svg>
