<?xml version="1.0" encoding="utf-8"?>
<!-- Generator: Adobe Illustrator 24.0.2, SVG Export Plug-In . SVG Version: 6.00 Build 0)  -->
<svg version="1.1" id="Layer_1" xmlns="http://www.w3.org/2000/svg" xmlns:xlink="http://www.w3.org/1999/xlink" x="0px" y="0px"
	 viewBox="0 0 400 600" style="enable-background:new 0 0 400 600;" xml:space="preserve">
<style type="text/css">
	.st0{fill:#FFFFFF;}
	.st1{fill:#060015;}
</style>
<path class="st0" d="M189.5,302.5c0.3-2,0.6-4.3-2-6.1c-0.3-0.2-1-0.5-1.6-0.7c-2.8-0.8-4.9,0.8-6.3,3c0.4-2.6,0.6-5.7,0-8.9
	c0,0,0,0,0.1,0l0,0c0,0,0.1,0,0.1,0.1h0.1c0,0,0.1,0.1,0.2,0.1c0,0,0.1,0,0.1,0.1c0.1,0,0.1,0.1,0.2,0.1c0.1,0,0.1,0,0.2,0.1
	c0.1,0,0.1,0.1,0.2,0.1c0.1,0,0.1,0.1,0.2,0.1c0.1,0,0.2,0.1,0.2,0.1c0.1,0,0.2,0,0.3,0.1c0.1,0,0.2,0,0.3,0.1c0.1,0,0.2,0,0.3,0.1
	c0.1,0,0.2,0,0.3,0.1c0.1,0,0.2,0,0.3,0s0.2,0,0.3,0s0.2,0,0.3,0s0.2,0,0.3,0s0.2,0,0.3,0s0.2,0,0.3,0s0.2-0.1,0.3-0.1
	s0.2-0.1,0.3-0.1s0.2-0.1,0.3-0.1s0.2-0.1,0.3-0.2s0.2-0.1,0.3-0.2s0.2-0.1,0.3-0.2s0.2-0.2,0.3-0.3c0.1-0.1,0.2-0.2,0.3-0.3
	c0.1-0.1,0.2-0.2,0.3-0.4c0.1-0.1,0.1-0.1,0.2-0.2l0,0c0.1-0.1,0.2-0.2,0.2-0.4c0,0-2.7,1.9-5.3-1.4c0,0,1,0.2,2.1-0.2l0,0
	c0,0,0.1,0,0.1-0.1c0,0,0.1,0,0.1-0.1c0.1,0,0.2-0.1,0.2-0.1c0.1,0,0.1-0.1,0.2-0.1c0.1,0,0.1-0.1,0.2-0.1c0.1-0.1,0.1-0.1,0.2-0.2
	c0.1,0,0.1-0.1,0.2-0.2c0.1-0.1,0.2-0.1,0.2-0.2c0,0,0.1-0.1,0.1-0.2c0.2-0.2,0.4-0.5,0.5-0.7c0,0,0-0.1,0.1-0.1
	c0-0.1,0.1-0.2,0.1-0.2c0.1-0.1,0.1-0.3,0.2-0.4c0-0.1,0.1-0.1,0.1-0.2c0.1-0.1,0.1-0.3,0.2-0.5l0,0c0-0.1,0-0.1,0.1-0.2
	c0,0-0.9,1.3-3.3,0.9c-2.4-0.4-5.4-2.3-11.4-7.2c-5.8-4.8-20.2-10.6-32-4.1c-0.3-0.7-0.9-1.2-1.6-1.4c-0.7-0.2-1.5,0-2.1,0.4
	c-1,0.8-1.7,2.1-2.1,3.1c0.1-6.2,0.4-11.9,1.1-17.3c0.1-0.5,0.2-1.1,0.2-1.6c0.7-0.1,3.9-0.7,5-2.7c0.4-0.7,0.5-1.5,0.2-2.2
	c-0.2-0.6-0.7-1.1-1.3-1.2c-0.6-0.2-1.3,0.1-1.8,0.6c-0.6,0.6-1.1,1.6-1.5,2.5c1.1-6.5,2.9-12.5,5.2-18c4.7-11,8.4-14.4,11.4-16.3
	c0.2-0.1,0.3-0.4,0.3-0.6s-0.2-0.4-0.4-0.5c-0.1,0-0.1,0-0.2,0c-4.5,0.9-8,5.4-9.7,8c-2,3-3.7,6.4-5.3,10.5c0-0.4-0.1-0.8-0.1-1.1
	c-0.2-1.1-0.9-1.9-1.9-2.2c-0.7-0.2-1.4,0-2,0.5c-0.7,0.5-1.1,1.3-1.2,2.4c-0.2,2.6,2.1,5.4,3.1,6.5c-1.5,5-2.5,10.1-3.1,15.2
	c-0.1-0.4-0.2-0.8-0.3-1.2c-0.4-0.9-1-1.5-1.8-1.7s-1.6,0-2.2,0.6c-0.7,0.6-1,1.6-0.9,2.7c0.3,3.1,4,5.7,4.6,6.1
	c-0.4,5-0.5,10-0.5,14.9c-0.2-0.7-0.5-1.4-0.8-2c-0.3-0.5-0.8-0.9-1.3-1c-0.7-0.2-1.4,0.1-2,0.7c-0.6,0.7-0.7,1.6-0.4,2.6
	c0.6,2.1,3.1,3.4,4.2,3.9c0,0,0,0.1-0.1,0.1c-0.1,0.3-0.3,0.5-0.4,0.8c-0.2,0.3-0.3,0.6-0.5,0.9c-0.1,0.3-0.3,0.5-0.4,0.8
	c-0.1,0.3-0.3,0.7-0.4,1c-0.1,0.3-0.2,0.5-0.3,0.8c-0.1,0.3-0.2,0.7-0.4,1c-0.1,0.3-0.2,0.5-0.3,0.8c-0.1,0.4-0.2,0.7-0.3,1.1
	c-0.1,0.3-0.1,0.5-0.2,0.8c-0.1,0.4-0.2,0.8-0.2,1.2c0,0.3-0.1,0.5-0.1,0.8c-0.1,0.4-0.1,0.8-0.1,1.2c0,0.2-0.1,0.5-0.1,0.7
	c0,0.5,0,0.9,0,1.4c0,0.2,0,0.4,0,0.6c0,0.7,0.1,1.3,0.2,2c0.5,3.8,2,7.5,4,10.9c-0.2-0.2-0.5-0.3-0.8-0.4c-0.7-0.2-1.5,0.1-2,0.7
	c-0.6,0.7-0.7,1.7-0.4,2.7c0.9,2.7,4.9,4,5.1,4h0.1c0.3,2.9,0.6,5.8,0.9,8.7c-1.2,1.5-1.7,2.2-3,2.7c-1.8,0.7-4.6-1.5-6.5-3.3
	c-1.8-1.8-2.1-3.8-2.1-3.8s-0.3,0.2-0.5,0.7c-0.1-0.2-0.2-0.5-0.3-0.9c0-0.2-0.1-0.3-0.1-0.5s-0.1-0.3-0.1-0.5
	c-0.3-1.3-0.6-2.3-2-4.1c-0.1-0.2-1.2-1.9-1.8-2.9c-0.1-0.2-0.2-0.5-0.3-0.7c-0.3-0.7-0.7-1.4-2.3-2.7c-1.3-1-2.3-1.6-3.2-1.8
	c-0.9-0.2-1.6-0.1-2.1,0.5c-0.2,0.2-0.3,0.5-0.3,0.7c0.1,0.6,0.6,1.1,1.6,1.6c0.9,0.5,1.8,1.2,2.6,2c0.1,0.1,0.2,0.3,0.4,0.6
	c-0.4-0.4-0.9-0.8-1.3-1.1c-1-0.8-2.3-1.7-3.3-2c-0.1,0-0.2,0-0.3-0.1c-0.8-0.1-1.8,0.2-2.2,0.7c-0.3,0.3-0.3,0.6-0.3,0.9
	c0.1,1,1.1,1.2,1.4,1.3c0.2,0.1,0.5,0.1,0.8,0.1h0.1c0.5,0.1,1.2,0.7,1.8,1.3c-0.6-0.2-1.4-0.5-1.8-0.6c-0.2,0-0.3-0.1-0.4-0.1
	c-0.5-0.1-1.8,0.2-2.4,0.9c-0.3,0.4-0.4,0.9-0.3,1.4s1.1,0.9,1.8,1.1h0.1c0.2,0,0.4,0.1,0.7,0.1c0.2,0.1,0.5,0.1,0.8,0.2
	c-0.7,0.2-1.5,0.7-1.8,0.9c-0.3,0.2-0.6,0.6-0.7,1c-0.1,0.3,0,0.7,0.2,1c0.1,0.2,0.4,0.4,0.7,0.5c0.5,0.1,1.2,0,1.8-0.1
	c0.8-0.2,1.7-0.2,2.4,0c0.1,0,0.2,0,0.3,0.1c0.5,0.2,0.5,0.3,0.6,0.8c0,0.2,0,0.3,0.1,0.6c0,0.1,0,0.2,0.1,0.3
	c0.2,1,0.5,2.7,1.8,3.7c0.3,0.2,0.7,0.4,1.1,0.5c1,0.3,2-0.1,2.6-0.3h0.1h0.1c0.3,0.1,1,0.5,2,1.6c0.9,1,5.5,5.4,9.3,6.4
	c-0.7,1-1.2,2-1.6,3.2c-0.9-0.9-1.4-1.2-1.6-1.3c-0.9-0.8-1.9-1.5-2.6-1.7c-1.8-0.5-3.7,2-5.2,4.3l0,0c-0.1,0.2-0.2,0.3-0.3,0.5
	c-0.1,0.2-0.2,0.3-0.3,0.5c0,0-0.4-0.3-1-0.7l0,0c-1.6-1.1-5-3-9.8-4c-6.7-1.4-8.8,0.1-11,0.1s-2.6-0.4-2.9-0.7
	c-0.3-0.3-0.6,1.2,1.1,1.9c0,0-0.6-0.1-1-0.1h-0.1c-0.1,0-0.2-0.1-0.4-0.1c-0.1,0-0.2-0.1-0.4-0.1h-0.2h-0.2c-0.5-0.1-1-0.3-1.4-0.5
	c-1.4-0.8-2.1-2.6-2.7-4.2l-0.1-0.3l-0.1-0.1c-0.4-1.1-0.9-2.4-1.7-3.3c0.3-1.2,0.3-2.4,0-3.4c-0.3-0.9-1.2-1.7-2-1.9
	c-0.2,0-0.3-0.1-0.5-0.1c-0.9,0-1.5,0.6-1.7,1.6c-0.5,0-0.8,0.2-1,0.6c-0.1,0.2-0.2,0.4-0.2,0.7c-0.3,0-0.6,0.1-0.8,0.3
	c-0.2,0.2-0.3,0.4-0.3,0.9c-0.2,0-0.4,0.1-0.5,0.3c-0.2,0.2-0.3,0.6-0.2,1c-0.2,0.1-0.4,0.2-0.5,0.4c-0.2,0.4-0.2,0.9,0,1.4
	c0.3,0.5,0.8,1.2,1.5,1.5c0,2.2,1.5,4,2.8,5.5c0.3,0.4,0.6,0.7,0.9,1.1c0.7,0.9,1.2,2,1.7,3.1c0.4,0.9,0.8,1.8,1.4,2.6
	c0.9,1.5,1.9,2.4,3,2.6c0.4,0.1,0.9,0.1,1.3,0c1.2-0.3,1.8-0.9,2.1-2.1c0.2-0.5,0.3-0.9,0.6-1.1c0,0.4,0.9-0.3,1.4-0.5
	c0.1,0,0.2,0,0.2-0.1c0,0.2-0.8,1.2,0,1.8c0,0,0.6-1,3.7-1.5c3.1-0.6,9.9-1.4,15.2,5.5c-0.3,0.2-0.5,0.5-0.7,0.7l0,0
	c-0.3,0.2-0.6,0.4-0.9,0.4c0,0,0,0,0.1,0.1l0,0c0,0,0,0,0.1,0c0,0,0.1,0.1,0.2,0.1l0,0c0.1,0,0.1,0,0.2,0c0,0,0,0,0.1,0
	c0,0,0,0,0.1,0c-0.1,0.1-0.2,0.2-0.4,0.2c-0.5,0.2-1,0.3-1.6,0.1c-0.5-0.1-1.1-0.4-1.7-0.8c-0.3-0.2-0.7-0.5-1.1-0.8
	c-0.8-0.6-1.8-1.3-2.8-1.6c-0.2-0.6-0.5-1.3-0.9-1.9c-0.2-0.2-0.7-0.9-1.4-1c-0.1,0-0.3-0.1-0.4,0c-0.4,0-0.8,0.3-1,0.7
	c-0.1-0.1-0.2-0.1-0.3-0.1c-0.6-0.2-1.2,0.1-1.5,0.5c-0.1,0.1-0.1,0.2-0.2,0.4c-0.6-0.1-1.1,0.2-1.3,0.7c-0.3,0.1-0.7,0.4-0.8,0.7
	c-0.1-0.1-0.2-0.1-0.4-0.2c-0.6-0.1-1.1,0.1-1.6,0.6c-0.6,0.7-0.8,1.7-0.6,2.6c0.4,1.4,1.5,2.6,2.7,3c0.2,0.1,0.3,0.1,0.5,0.1
	c0.3,0.1,0.6,0.1,0.8,0.1c0.9,1.8,3.5,2.6,5.3,3.2c0.4,0.1,0.7,0.2,1,0.3c1.9,0.7,3.7,1.5,5.6,2.4c0.9,0.4,1.8,0.9,2.7,1.1
	c0,0,0.1,0,0.1,0.1c0.4,0.2,0.8,0.3,1.2,0.4c1.5,0.4,2.9,0.2,3.8-0.5c0.6-0.5,0.9-1.1,1-2s-0.1-1.8-0.2-2.6c0.5,0.7,1.2,1.5,2,2.2
	c0,0,3.4,4,9.7,5.3c-0.9,1.6-1.9,3.1-3.1,4.5c-2.6,3.2-5.9,5.7-8.4,7.5c-1.5,1.1-3.2,2.3-5.2,3.7c0.9-1,1.8-2.2,2.2-3.5
	c0.3-0.8,0.2-1.7-0.1-2.3c-0.3-0.6-0.9-1.1-1.6-1.3c-1.1-0.3-2.1,0.2-2.9,1.3c-1.6,2.3-0.7,6.6-0.5,7.7c-0.9,0.6-1.8,1.3-2.6,2.2
	c-0.6,0.7-1.2,1.6-1.8,2.6c-0.5,0.8-0.9,1.7-1.4,2.8c-0.4,1.1-0.8,2.2-1,3.5c-0.1-0.8-0.3-1.5-0.6-2.2c-0.3-0.6-0.8-1-1.4-1.2
	s-1.3,0-1.8,0.6s-0.8,1.4-0.6,2.3c0.4,2.3,3.3,4,4,4.4c0,3.4,1,6.5,2.8,8.6c0.6,0.7,2.3,2.5,4.4,3c0.8,0.2,1.5,0.2,2.2,0
	c2.2-0.7,3.7-2.8,3.8-5.2c0-2.1-0.8-3.5-2.2-3.9c-0.4-0.1-0.9-0.1-1.4,0c-0.8,0.2-2,1.1-2.2,2.1c-0.2,0.6-0.1,1.2,0.1,1.7
	c0.1,0.8,0.6,1.5,1.3,1.6c0.1,0,0.2,0,0.4,0c0.5,0.1,1-0.1,1.3-0.6c0.1-0.2,0.2-0.4,0.3-0.6c0,0.2-0.1,0.5-0.2,0.7
	c-0.5,1.3-1.6,1.8-2.8,1.5c-0.4-0.1-0.8-0.3-1.1-0.5c-3.8-2.7-3.9-7.6-3.3-11.3c0.2-1.1,0.5-2.1,0.9-3c0.1,0,0.2,0.1,0.3,0.1
	c1.3,0.3,4.3,0.9,5.8-0.3c0.6-0.5,0.9-1.2,0.8-1.9c-0.2-0.9-1-1.7-1.9-2c-0.4-0.1-0.9-0.1-1.3,0c-0.7,0.2-1.4,0.7-2,1.2
	c2.4-3.2,6.1-5.4,9.6-7.5c2-1.2,3.9-2.3,5.6-3.6c4.6-3.6,8.1-7.8,10.3-12.4c1.9-0.1,3.9-0.4,6.1-1.1c-0.9,2.3-1.6,4.8-1.7,7
	c-0.3,4.3,0.5,8.4,2.8,12.1c4.2,6.9,14,6.7,20,3c0.4-0.2,0.7-0.5,1-0.7c0.1-0.1,0.2-0.2,0.3-0.2c0.2-0.2,0.5-0.4,0.7-0.6
	c0.1-0.1,0.2-0.2,0.3-0.3c0.3-0.3,0.6-0.6,0.9-0.9l0.1-0.1c0.3-0.3,0.5-0.6,0.7-1c0.1-0.1,0.2-0.2,0.2-0.4c0.2-0.3,0.3-0.5,0.5-0.8
	c0.1-0.1,0.1-0.2,0.2-0.4c0.2-0.4,0.4-0.8,0.6-1.2l0,0c0.4-0.9,0.7-1.9,0.9-2.9c0.5-2.3,0.1-4.8-0.5-7.1c-0.4-1.8-0.9-3.6-1.2-5.4
	c-0.1-0.4-0.2-0.9-0.2-1.3c0-0.1,0-0.2,0-0.2c-0.1-0.5-0.1-1-0.2-1.4c-0.3-4.4,0.7-10.2,4.1-13c3.4-2.8,12.4-3.1,12.7,3.1
	c0.1,1.9-0.4,5-1.4,6.6c-0.8,1.3-2.1,2.4-3.6,2.2c-0.7-0.1-2.3-2-0.9-2.2c0.2,0,0.3-0.1,0.5-0.1c0,0,0.1,0,0.1-0.1
	c0.1-0.1,0.2-0.1,0.3-0.2c0,0,0.1,0,0.1-0.1c0.1-0.1,0.2-0.2,0.3-0.3l0,0c0.1-0.2,0.2-0.4,0.3-0.6c0-0.1,0-0.1,0-0.2
	c0.4-1.5-1-2.4-2.2-2.2c-0.6,0.1-1.3,0.4-1.9,0.8c-0.1,0.1-0.2,0.1-0.3,0.2c-0.1,0-0.1,0.1-0.2,0.1c-0.1,0.1-0.3,0.2-0.4,0.4
	l-0.1,0.1c-0.1,0.1-0.2,0.3-0.3,0.4c0,0,0,0.1-0.1,0.1c-0.1,0.2-0.2,0.3-0.3,0.5v0.1c-0.1,0.2-0.1,0.4-0.1,0.6
	c-0.2,2.4,0.9,3.9,2.6,5.2c3.8,3,8.1-1.1,9.6-4.8c0.2-0.4,0.3-0.7,0.4-1.1l0,0l0,0c1.2-3.9,0.4-8.4-2.5-11.2c-3-2.9-7.5-3-11.1-2
	c-1.8,0.5-3.3,1.5-4.6,2.8c0,0,0-0.1,0.1-0.1c-0.1,0.1-0.1,0.1-0.2,0.2c-0.3,0.3-0.6,0.7-0.9,1.1c0,0.1-0.1,0.1-0.2,0.2
	c-0.3,0.4-0.6,0.9-0.9,1.4c-0.1,0.1-0.1,0.2-0.2,0.3c-0.2,0.4-0.4,0.9-0.6,1.3c0,0.1-0.1,0.2-0.1,0.3c-0.2,0.5-0.4,1.1-0.6,1.6
	c0,0.1-0.1,0.2-0.1,0.3c-0.1,0.5-0.3,1-0.4,1.4c0,0.1-0.1,0.2-0.1,0.4c-0.1,0.6-0.2,1.1-0.3,1.7c0,0.1,0,0.1,0,0.2
	c-0.1,0.5-0.1,1-0.1,1.5c0,0.1,0,0.3,0,0.4c0,0.5,0,1.1,0,1.6c0.1,2.2,0.5,4.5,1.2,6.6c0.8,2.5,1.5,5,1.6,7.7c0,0.3,0,0.6,0,0.9
	c0,0.1,0,0.2-0.1,0.4c0,0.2-0.1,0.3-0.1,0.5c0,0.1-0.1,0.3-0.1,0.4s-0.1,0.3-0.1,0.4s-0.1,0.3-0.1,0.4c-0.1,0.1-0.1,0.3-0.2,0.4
	c-0.1,0.1-0.1,0.2-0.2,0.4c-0.1,0.2-0.2,0.3-0.3,0.5c0,0.1-0.1,0.2-0.1,0.3c-0.5,0.8-1,1.6-1.5,2.3c-3.4,4.4-10.1,5.2-14.7,2.6
	c-4.6-2.6-6.1-7.1-5.8-12l0,0c0-0.5,0.1-1,0.1-1.5c0-0.1,0-0.2,0-0.3c0.1-0.4,0.1-0.8,0.2-1.2c0-0.1,0-0.3,0.1-0.4
	c0.1-0.4,0.2-0.8,0.3-1.2c0-0.1,0-0.2,0.1-0.3c0.1-0.5,0.3-1,0.4-1.5c0.3-1.2,0.8-2.3,1.2-3.4c2.3-1.7,4.5-4.6,5.5-9.6
	c0.3,0.1,0.6,0.3,0.9,0.3c1.2,0.4,3.3,0.9,5.3,0.1c0.2-0.1,0.4-0.2,0.6-0.4l0,0l0,0c2.4-2,2.9-9,1-15c-0.6-1.8-1.2-3.5-2-5
	c6.8,1.2,15.9-0.1,22-9.6c0.7-0.3,5.2-2.1,7-6.1c0.7-1.6,1-2.6,0.8-3.2c-0.1-0.2-0.2-0.4-0.4-0.5c-0.4-0.2-1.1,0-1.7,0.3
	c-0.1-0.3-0.2-0.6-0.3-1.1C187.7,308.4,189.2,304.9,189.5,302.5z M139.1,319.3c-0.5,0.6-0.9,1.3-1.3,1.9c-0.1-1.2-0.3-2.3-0.4-3.5
	C138,318.2,138.5,318.8,139.1,319.3z M135.3,276.8c-0.1,0.1-0.2,0.2-0.3,0.3c-0.2,0.2-0.4,0.4-0.6,0.7l0,0c0-0.3,0-0.6,0-0.9
	C134.6,276.9,134.9,276.9,135.3,276.8z M132.9,312.3c0,0.2,0,0.5,0.1,0.7c-0.1-0.4-0.2-0.8-0.4-1.2
	C132.7,312,132.8,312.2,132.9,312.3z"/>
<path id="XMLID_11584_" class="st1" d="M0.1-0.3H400c-8.7,33.7-39.4,84.4-44.4,98.8c-7.9,22.4-12.6,41.6-45.6,27.2
	c-33.1-14.4-130.4-27.2-151.6-24s-48-1.6-85.7-24C59.1,69.6,11.4,65.9,0,64.2C0.2,47.7,0.1,16.1,0.1-0.3z"/>
<path class="st0" d="M139.7,231.4l48.5-77c0,0,3.8-3.2,1.5,1.2c-2.3,4.4-43.1,69.7-43.1,69.7L139.7,231.4z"/>
<path class="st0" d="M172.9,177.8l48.5-77c0,0,3.8-3.2,1.5,1.2c-2.3,4.4-43.1,69.7-43.1,69.7L172.9,177.8z"/>
</svg>
